<svg width="257" height="181" viewBox="0 0 257 181" fill="none" xmlns="http://www.w3.org/2000/svg">
<g filter="url(#filter0_d_1_732)">
<path d="M128.5 159C187.871 159 236 133.033 236 101C236 68.9675 187.871 43 128.5 43C116.848 43 105.629 44.0005 95.1211 45.8506C90.008 36.8302 87.9444 25.9673 87.5576 20C85.3231 29.0514 85.4847 40.0138 86.1475 47.6758C47.8352 56.5452 21 77.0814 21 101C21 133.033 69.1294 159 128.5 159Z" fill="#F9FBFE"/>
<path d="M95.1211 45.8506L95.2078 46.343L94.8602 46.4042L94.6861 46.0972L95.1211 45.8506ZM87.5576 20L87.0722 19.8802L88.0566 19.9677L87.5576 20ZM86.1475 47.6758L86.6456 47.6327L86.683 48.065L86.2603 48.1629L86.1475 47.6758ZM128.5 159V158.5C158.119 158.5 184.909 152.022 204.277 141.572C223.664 131.112 235.5 116.745 235.5 101H236H236.5C236.5 117.288 224.271 131.921 204.751 142.452C185.212 152.995 158.252 159.5 128.5 159.5V159ZM236 101H235.5C235.5 85.2553 223.664 70.8881 204.277 60.4278C184.909 49.9784 158.119 43.5 128.5 43.5V43V42.5C158.252 42.5 185.212 49.0053 204.751 59.5478C224.271 70.0794 236.5 84.7122 236.5 101H236ZM128.5 43V43.5C116.876 43.5 105.686 44.4981 95.2078 46.343L95.1211 45.8506L95.0344 45.3582C105.571 43.503 116.819 42.5 128.5 42.5V43ZM95.1211 45.8506L94.6861 46.0972C89.5252 36.9925 87.4487 26.0502 87.0587 20.0323L87.5576 20L88.0566 19.9677C88.4401 25.8844 90.4907 36.6679 95.5561 45.604L95.1211 45.8506ZM87.5576 20L88.0431 20.1198C85.828 29.0922 85.9845 39.9905 86.6456 47.6327L86.1475 47.6758L85.6494 47.7189C84.9848 40.0372 84.8182 29.0106 87.0722 19.8802L87.5576 20ZM86.1475 47.6758L86.2603 48.1629C67.1558 52.5857 50.9439 59.9109 39.5197 69.0843C28.0943 78.2587 21.5 89.2426 21.5 101H21H20.5C20.5 88.8388 27.3234 77.5953 38.8936 68.3046C50.4651 59.0129 66.8268 51.6354 86.0347 47.1887L86.1475 47.6758ZM21 101H21.5C21.5 116.745 33.3359 131.112 52.7235 141.572C72.0909 152.022 98.8811 158.5 128.5 158.5V159V159.5C98.7484 159.5 71.7886 152.995 52.2486 142.452C32.7289 131.921 20.5 117.288 20.5 101H21Z" fill="black"/>
</g>
<defs>
<filter id="filter0_d_1_732" x="0.500031" y="0.880127" width="256" height="179.62" filterUnits="userSpaceOnUse" color-interpolation-filters="sRGB">
<feFlood flood-opacity="0" result="BackgroundImageFix"/>
<feColorMatrix in="SourceAlpha" type="matrix" values="0 0 0 0 0 0 0 0 0 0 0 0 0 0 0 0 0 0 127 0" result="hardAlpha"/>
<feOffset dy="1"/>
<feGaussianBlur stdDeviation="10"/>
<feComposite in2="hardAlpha" operator="out"/>
<feColorMatrix type="matrix" values="0 0 0 0 0 0 0 0 0 0 0 0 0 0 0 0 0 0 0.1 0"/>
<feBlend mode="normal" in2="BackgroundImageFix" result="effect1_dropShadow_1_732"/>
<feBlend mode="normal" in="SourceGraphic" in2="effect1_dropShadow_1_732" result="shape"/>
</filter>
</defs>
</svg>
