<svg width="217" height="141" viewBox="0 0 217 141" fill="none" xmlns="http://www.w3.org/2000/svg">
<path d="M108.5 140C167.871 140 216 114.033 216 82C216 49.9675 167.871 24 108.5 24C96.8477 24 85.6285 25.0005 75.1211 26.8506C70.008 17.8302 67.9444 6.96732 67.5576 1C65.3231 10.0514 65.4847 21.0138 66.1475 28.6758C27.8352 37.5452 1.00003 58.0814 1.00003 82C1.00003 114.033 49.1294 140 108.5 140Z" fill="#F9FBFE"/>
<path d="M75.1211 26.8506L75.2078 27.343L74.8602 27.4042L74.6861 27.0972L75.1211 26.8506ZM67.5576 1L67.0722 0.880157L68.0566 0.967667L67.5576 1ZM66.1475 28.6758L66.6456 28.6327L66.683 29.065L66.2603 29.1629L66.1475 28.6758ZM108.5 140V139.5C138.119 139.5 164.909 133.022 184.277 122.572C203.664 112.112 215.5 97.7447 215.5 82H216H216.5C216.5 98.2878 204.271 112.921 184.751 123.452C165.212 133.995 138.252 140.5 108.5 140.5V140ZM216 82H215.5C215.5 66.2553 203.664 51.8881 184.277 41.4278C164.909 30.9784 138.119 24.5 108.5 24.5V24V23.5C138.252 23.5 165.212 30.0053 184.751 40.5478C204.271 51.0794 216.5 65.7122 216.5 82H216ZM108.5 24V24.5C96.8761 24.5 85.6859 25.4981 75.2078 27.343L75.1211 26.8506L75.0344 26.3582C85.5711 24.503 96.8194 23.5 108.5 23.5V24ZM75.1211 26.8506L74.6861 27.0972C69.5252 17.9925 67.4487 7.05023 67.0587 1.03233L67.5576 1L68.0566 0.967667C68.4401 6.88438 70.4907 17.6679 75.5561 26.604L75.1211 26.8506ZM67.5576 1L68.0431 1.11984C65.828 10.0922 65.9845 20.9905 66.6456 28.6327L66.1475 28.6758L65.6494 28.7189C64.9848 21.0372 64.8182 10.0106 67.0722 0.880157L67.5576 1ZM66.1475 28.6758L66.2603 29.1629C47.1558 33.5857 30.9439 40.9109 19.5197 50.0843C8.09426 59.2587 1.50003 70.2426 1.50003 82H1.00003H0.500031C0.500031 69.8388 7.32338 58.5953 18.8936 49.3046C30.4651 40.0129 46.8268 32.6354 66.0347 28.1887L66.1475 28.6758ZM1.00003 82H1.50003C1.50003 97.7447 13.3359 112.112 32.7235 122.572C52.0909 133.022 78.8811 139.5 108.5 139.5V140V140.5C78.7484 140.5 51.7886 133.995 32.2486 123.452C12.7289 112.921 0.500031 98.2878 0.500031 82H1.00003Z" fill="black"/>
</svg>
