<svg width="241" height="141" viewBox="0 0 241 141" fill="none" xmlns="http://www.w3.org/2000/svg">
<path d="M93.1075 139.78C90.5737 134.595 87.1319 124.676 86.8614 114.67C97.5316 116.186 108.821 117 120.501 117C186.5 117 240.003 91.0324 240.003 58.9999C240.003 26.9674 186.5 0.999878 120.501 0.999878C54.5025 0.999969 1.00014 26.9675 1.00003 58.9999C1.00003 83.5113 32.3279 104.471 76.6104 112.963C79.4997 119.879 85.5158 131.813 93.1075 139.78Z" fill="#F9FBFE"/>
<path d="M93.1075 139.78L93.5567 139.561L92.7455 140.125L93.1075 139.78ZM86.8614 114.67L86.3615 114.683L86.3455 114.091L86.9317 114.175L86.8614 114.67ZM120.501 117V117.5V117ZM240.003 58.9999H240.503H240.003ZM120.501 0.999878V0.499878V0.999878ZM1.00003 58.9999H0.500031H1.00003ZM76.6104 112.963L76.7045 112.472L76.9682 112.522L77.0717 112.77L76.6104 112.963ZM93.1075 139.78L92.6582 140C90.1024 134.769 86.6345 124.78 86.3615 114.683L86.8614 114.67L87.3612 114.656C87.6293 124.573 91.0451 134.421 93.5567 139.561L93.1075 139.78ZM86.8614 114.67L86.9317 114.175C97.5782 115.688 108.844 116.5 120.501 116.5V117V117.5C108.798 117.5 97.4851 116.685 86.791 115.165L86.8614 114.67ZM120.501 117V116.5C153.442 116.5 183.239 110.019 204.783 99.5623C226.361 89.0893 239.503 74.7169 239.503 58.9999H240.003H240.503C240.503 75.3154 226.893 89.9429 205.22 100.462C183.512 110.997 153.559 117.5 120.501 117.5V117ZM240.003 58.9999H239.503C239.503 43.2829 226.361 28.9104 204.783 18.4375C183.239 7.98125 153.442 1.49988 120.501 1.49988V0.999878V0.499878C153.559 0.499878 183.512 7.00227 205.22 17.5379C226.893 28.0568 240.503 42.6844 240.503 58.9999H240.003ZM120.501 0.999878V1.49988C87.5605 1.49992 57.7631 7.98131 36.2194 18.4376C14.6415 28.9105 1.50008 43.2829 1.50003 58.9999H1.00003H0.500031C0.500085 42.6844 14.1099 28.0569 35.7828 17.5379C57.4899 7.00233 87.443 0.499924 120.501 0.499878V0.999878ZM1.00003 58.9999H1.50003C1.50003 71.0249 9.18533 82.2605 22.4862 91.5794C35.7794 100.893 54.61 108.235 76.7045 112.472L76.6104 112.963L76.5162 113.454C54.3283 109.199 35.3537 101.816 21.9124 92.3983C8.47867 82.9864 0.500031 71.4863 0.500031 58.9999H1.00003ZM76.6104 112.963L77.0717 112.77C79.9531 119.667 85.9409 131.535 93.4694 139.435L93.1075 139.78L92.7455 140.125C85.0907 132.092 79.0463 120.091 76.149 113.156L76.6104 112.963Z" fill="black"/>
</svg>
